PathFileType	4	(X/Y/Z)	G:\マイドライブ\biomec\experimentalData\240725\CJ2.trc
DataRate	CameraRate	NumFrames	NumMarkers	Units	OrigDataRate	OrigDataStartFrame	OrigNumFrames
200.00	200.00	      4	52	mm	200.00	624	      1662
Frame#	Time	handR			wrRI			wrRO			elbRI			elbRO			shRF			shRU			shRB			handL			wrLI			wrLO			elbLI			elbLO			shLF			shLU			shLB			toeR			baRI			baRO			heelR			anRI			anRO			knRI			knRO			troR			toeL			baLI			baLO			heelL			anLI			anLO			knLI			knLO			troL			head			earR			earL			clav			c7			ribR			ribL			xiph			ASISR			ASISL			PSISR			PSISL			t8			t11			L1			L3			LS			COX			
		X1	Y1	Z1	X2	Y2	Z2	X3	Y3	Z3	X4	Y4	Z4	X5	Y5	Z5	X6	Y6	Z6	X7	Y7	Z7	X8	Y8	Z8	X9	Y9	Z9	X10	Y10	Z10	X11	Y11	Z11	X12	Y12	Z12	X13	Y13	Z13	X14	Y14	Z14	X15	Y15	Z15	X16	Y16	Z16	X17	Y17	Z17	X18	Y18	Z18	X19	Y19	Z19	X20	Y20	Z20	X21	Y21	Z21	X22	Y22	Z22	X23	Y23	Z23	X24	Y24	Z24	X25	Y25	Z25	X26	Y26	Z26	X27	Y27	Z27	X28	Y28	Z28	X29	Y29	Z29	X30	Y30	Z30	X31	Y31	Z31	X32	Y32	Z32	X33	Y33	Z33	X34	Y34	Z34	X35	Y35	Z35	X36	Y36	Z36	X37	Y37	Z37	X38	Y38	Z38	X39	Y39	Z39	X40	Y40	Z40	X41	Y41	Z41	X42	Y42	Z42	X43	Y43	Z43	X44	Y44	Z44	X45	Y45	Z45	X46	Y46	Z46	X47	Y47	Z47	X48	Y48	Z48	X49	Y49	Z49	X50	Y50	Z50	X51	Y51	Z51	X52	Y52	Z52	

624	3.115	592.42328	758.83319	1051.46130	552.73425	694.76556	1027.90137	509.35291	741.66119	1064.96692	389.86740	609.04382	1195.47266	451.28668	557.94666	1211.93738	572.35706	755.35107	1422.34241	515.24609	731.38861	1451.11938	463.14664	738.89716	1414.45886	626.66882	1042.68286	1052.37354	591.69098	1111.00281	1021.17291	552.10358	1071.23108	1071.98743	462.39658	1246.91882	1169.74390	535.86023	1285.53967	1177.63037	600.14734	1078.92883	1403.64636	550.31470	1117.85620	1428.02917	490.16943	1105.08264	1381.44666	692.56274	734.75812	51.53617	611.75366	784.57184	35.86455	585.50592	660.81085	41.96345	406.66226	756.18896	39.49832	492.28070	789.86743	111.23996	470.81909	698.01141	102.89930	503.53885	818.14014	469.92072	507.81467	713.83008	479.08463	542.87128	729.74042	875.75562	701.15460	1078.42200	52.59824	630.53528	1028.18433	52.10345	603.03656	1140.78516	47.29510	415.60464	1075.30713	37.80959	504.49829	1029.39868	126.19843	483.04871	1118.39014	106.45531	514.82446	993.90216	470.82761	525.25177	1099.76477	485.37640	569.34003	1072.90686	865.62628	549.20099	940.63501	1712.78259	616.37518	848.31439	1561.95105	625.19312	1006.99078	1553.22778	615.76129	917.45117	1404.21692	489.46219	936.11029	1475.07983	600.36682	796.51129	1101.31934	628.15906	1012.85651	1095.10669	651.55951	905.17877	1248.95544	616.74792	792.08270	962.32385	631.92352	1010.59210	969.49701	450.03110	856.24573	1002.05817	464.06641	976.01117	1004.21832	433.67331	930.49097	1256.33752	453.09964	923.38074	1133.78357	464.61447	922.17273	1077.23987	460.88257	917.37311	1032.39832	446.55533	918.28918	996.04523	417.08234	919.58331	894.56537	
625	3.120	593.04407	758.58514	1051.29590	553.53894	694.36658	1027.73303	509.93320	741.28687	1064.87463	390.71353	608.34283	1195.01367	451.70197	557.59930	1211.71484	572.52173	754.69318	1422.49597	515.26941	730.60785	1451.13623	463.29041	738.11761	1414.34399	627.06677	1042.13672	1052.53613	592.13049	1110.51611	1021.35138	552.40814	1070.75171	1072.22632	462.60333	1246.49744	1169.97510	536.11267	1285.03760	1177.95007	600.06897	1078.26697	1403.90601	550.14703	1117.15649	1428.31299	490.18094	1104.41589	1381.55920	692.59271	734.77441	51.48353	611.77197	784.57080	35.81893	585.52679	660.80920	41.96504	406.65784	756.22125	39.51500	492.27261	789.86285	111.22540	470.84659	697.98138	102.87402	503.70105	817.79340	469.95230	508.19077	713.54034	479.08017	543.48035	729.26080	875.66077	701.13995	1078.45520	52.59465	630.56665	1028.21155	52.12997	603.08185	1140.76575	47.27411	415.58493	1075.30994	37.86776	504.53656	1029.35901	126.20081	483.07092	1118.34106	106.48620	515.08020	993.69940	470.78995	525.49103	1099.50305	485.41934	569.57263	1072.49573	865.64850	547.82568	939.87421	1712.76892	615.82831	847.59296	1562.32471	624.73450	1006.46643	1553.63599	615.77087	916.77325	1404.64282	489.28244	935.34930	1475.01477	601.08038	795.75537	1101.62720	628.49036	1012.39258	1095.21008	651.88153	904.73315	1249.31274	617.35229	791.54083	962.27258	632.38989	1010.07623	969.54901	450.58047	855.70789	1001.99963	464.51990	975.44214	1004.13678	433.94144	929.84583	1256.21008	453.50064	922.79169	1133.78247	465.07095	921.43445	1077.19238	461.32062	916.78748	1032.35095	446.89447	917.75543	996.10809	417.54233	918.91302	894.55243	
626	3.125	593.89539	758.16022	1051.11890	554.19171	694.20087	1027.48816	510.66516	740.75079	1064.74414	391.58942	607.53461	1194.64319	452.78326	556.72534	1211.23865	572.74890	754.07159	1422.68201	515.30048	729.93811	1451.15234	463.54776	737.34619	1414.20996	627.50903	1041.56006	1052.69617	592.60931	1109.97864	1021.61267	552.80341	1070.22229	1072.46484	462.81857	1246.02722	1170.23230	536.37885	1284.56079	1178.35608	599.97528	1077.75061	1404.22168	550.06494	1116.53503	1428.55017	490.11588	1103.58716	1381.64685	692.63770	734.86566	51.51857	611.81134	784.59467	35.81902	585.53687	660.83191	41.98365	406.65298	756.19672	39.53779	492.26779	789.85712	111.24909	470.89120	697.95447	102.88176	503.90808	817.49463	469.98645	508.63062	713.26044	479.10272	544.04846	728.76569	875.54047	701.14716	1078.48340	52.56926	630.56665	1028.20935	52.11216	603.06317	1140.76306	47.29972	415.57867	1075.30969	37.87296	504.52579	1029.32800	126.19967	483.11096	1118.31763	106.55175	515.31659	993.50122	470.79581	525.73724	1099.21118	485.43436	569.83185	1072.07507	865.70142	546.56500	939.21521	1712.69250	615.50604	847.08118	1562.54797	624.14801	1005.73566	1554.11206	615.82745	916.13239	1404.95703	489.02908	934.55536	1474.95972	601.84686	795.18335	1101.73914	628.86194	1011.81360	1095.31873	652.21759	904.32367	1249.64600	617.99371	790.92163	962.25842	632.87573	1009.55731	969.62524	451.14337	855.11261	1001.96490	464.86539	974.86273	1004.13647	434.21207	929.15747	1256.06580	454.02213	922.06464	1133.70178	465.42493	920.95013	1077.20264	461.66455	916.29901	1032.40076	447.50806	917.10150	996.02405	417.89944	918.42023	894.56232	
627	3.130	594.64453	757.76385	1050.98401	554.77173	693.99567	1027.29724	511.35147	740.36945	1064.73059	392.19373	606.94495	1194.40417	453.41641	556.13873	1210.95007	572.90601	753.51019	1422.88281	515.38818	729.18872	1451.19922	463.84122	736.51654	1414.15857	627.93127	1040.99829	1052.89941	592.98871	1109.55200	1021.91650	553.28687	1069.72180	1072.65796	463.44211	1245.59436	1170.20984	536.60760	1284.09973	1178.68506	599.86078	1077.10229	1404.55786	549.98218	1115.85437	1428.75305	490.07242	1102.76941	1381.78821	692.65961	734.74365	51.42823	611.81860	784.60724	35.79286	585.52740	660.84058	41.98236	406.66238	756.20551	39.53504	492.30927	789.82581	111.25134	470.93073	697.91852	102.85641	504.16409	817.22211	470.02951	509.24203	712.90619	479.08597	544.65649	728.25653	875.45026	701.15784	1078.48218	52.54311	630.57159	1028.20593	52.12258	603.07147	1140.76965	47.26982	415.60678	1075.29724	37.86790	504.54144	1029.28748	126.20998	483.13089	1118.26282	106.54321	515.57117	993.33154	470.80023	525.94098	1098.94824	485.43713	570.09833	1071.68970	865.73035	545.00665	938.56708	1712.68616	615.08301	846.44635	1562.85876	623.64172	1005.13879	1554.58459	615.94958	915.64899	1405.24292	488.80884	933.82593	1474.89429	602.71149	794.85797	1101.69006	629.24463	1011.29749	1095.45361	652.58759	903.64752	1249.97668	618.48633	790.59442	962.17371	633.24823	1009.15149	969.67224	451.65179	854.56714	1001.95862	465.18094	974.35077	1004.17059	434.35995	928.23505	1255.96680	454.50958	921.38696	1133.63379	465.84729	920.47784	1077.27063	462.01831	915.74634	1032.44568	448.04233	916.49701	995.95831	418.25116	917.96747	894.59595	
